<svg width="197" height="140" viewBox="0 0 197 140" fill="none" xmlns="http://www.w3.org/2000/svg">
<g clip-path="url(#clip0)">
<path d="M158.279 35.8898C158.279 27.6364 154.284 19.9595 147.031 14.2681C140.108 8.83781 130.959 5.84718 121.27 5.84718C111.581 5.84718 102.432 8.83781 95.5093 14.2681C93.6731 15.702 91.9956 17.3281 90.5055 19.1186C86.3177 17.8704 81.9701 17.2397 77.6001 17.2464C67.9113 17.2464 58.7632 20.237 51.8393 25.6681C44.5851 31.357 40.5903 39.0348 40.5903 47.2881C40.5903 55.507 44.6459 63.2562 51.8081 68.8844L48.4459 82.926C48.2759 83.6102 48.2985 84.3281 48.511 85.0003C48.7236 85.6726 49.1179 86.273 49.6505 86.7353C50.2213 87.2184 50.9442 87.485 51.6922 87.4883C52.2779 87.4872 52.8516 87.3226 53.3486 87.0129L70.0377 76.7083C72.5358 77.1248 75.0642 77.3338 77.5968 77.3332C87.2855 77.3332 96.4344 74.3425 103.358 68.9131C105.193 67.4819 106.868 65.8577 108.356 64.0683C112.546 65.3144 116.895 65.9437 121.267 65.9364C123.799 65.9368 126.328 65.7278 128.826 65.3115L145.516 75.6161C146.013 75.9258 146.586 76.0905 147.172 76.0916C147.92 76.0886 148.643 75.8219 149.214 75.3386C149.746 74.8762 150.141 74.2757 150.353 73.6035C150.565 72.9313 150.588 72.2134 150.418 71.5293L147.055 57.4876C154.223 51.8578 158.279 44.107 158.279 35.8898ZM141.447 52.8054C140.825 53.2481 140.351 53.868 140.087 54.5841C139.824 55.3002 139.782 56.0791 139.968 56.8192L141.931 65.0118L131.109 58.3301C130.612 58.0203 130.038 57.8554 129.453 57.8539C129.253 57.8537 129.054 57.8729 128.858 57.9113C126.357 58.3981 123.815 58.6426 121.267 58.6413C104.557 58.6413 90.964 48.4345 90.964 35.8889C90.964 23.3434 104.557 13.1357 121.267 13.1349C137.976 13.1341 151.569 23.3426 151.569 35.8889C151.573 42.2947 147.881 48.4648 141.447 52.8063V52.8054Z" fill="#779DFF" stroke="white" stroke-width="0.5"/>
<path d="M67.8359 60.68L50.7159 10.92C50.3426 9.85333 50.4759 8.86666 51.1159 7.96C51.8093 7.05333 52.7159 6.6 53.8359 6.6H54.1559C55.5426 6.6 56.7693 7 57.8359 7.8C58.9559 8.6 59.7026 9.64 60.0759 10.92L74.1559 56.12C74.1559 56.1733 74.1826 56.2 74.2359 56.2C74.2893 56.2 74.3159 56.1733 74.3159 56.12L88.3959 10.92C88.8226 9.64 89.5693 8.6 90.6359 7.8C91.7559 7 92.9826 6.6 94.3159 6.6C95.4359 6.6 96.3159 7.05333 96.9559 7.96C97.6493 8.86666 97.8093 9.85333 97.4359 10.92L80.3159 60.68C79.8893 61.96 79.1159 63 77.9959 63.8C76.9293 64.6 75.7026 65 74.3159 65H73.8359C72.5026 65 71.2759 64.6 70.1559 63.8C69.0359 63 68.2626 61.96 67.8359 60.68Z" fill="#D2D2D2"/>
<path d="M67.8359 60.68L68.0731 60.6009L68.0723 60.5987L67.8359 60.68ZM50.7159 10.92L50.9523 10.8387L50.9519 10.8374L50.7159 10.92ZM51.1159 7.96L50.9172 7.80802L50.9117 7.81582L51.1159 7.96ZM57.8359 7.8L57.6859 8.00005L57.6906 8.00343L57.8359 7.8ZM60.0759 10.92L59.8359 10.99L59.8373 10.9943L60.0759 10.92ZM74.1559 56.12H74.4059V56.082L74.3946 56.0456L74.1559 56.12ZM74.3159 56.12L74.0773 56.0456L74.0659 56.082V56.12H74.3159ZM88.3959 10.92L88.1587 10.8409L88.1573 10.8456L88.3959 10.92ZM90.6359 7.8L90.4906 7.59651L90.4859 7.6L90.6359 7.8ZM96.9559 7.96L96.7515 8.10427L96.7574 8.11186L96.9559 7.96ZM97.4359 10.92L97.2 10.8374L97.1995 10.8387L97.4359 10.92ZM80.3159 60.68L80.0795 60.5987L80.0788 60.6009L80.3159 60.68ZM77.9959 63.8L77.8506 63.5965L77.8459 63.6L77.9959 63.8ZM68.0723 60.5987L50.9523 10.8387L50.4795 11.0013L67.5995 60.7613L68.0723 60.5987ZM50.9519 10.8374C50.6047 9.84535 50.7278 8.94339 51.3202 8.10417L50.9117 7.81582C50.2241 8.78993 50.0805 9.86131 50.48 11.0026L50.9519 10.8374ZM51.3145 8.11186C51.9616 7.26566 52.7955 6.85 53.8359 6.85V6.35C52.6363 6.35 51.6569 6.841 50.9173 7.80813L51.3145 8.11186ZM53.8359 6.85H54.1559V6.35H53.8359V6.85ZM54.1559 6.85C55.4908 6.85 56.6644 7.23382 57.6859 8L57.9859 7.6C56.8742 6.76618 55.5944 6.35 54.1559 6.35V6.85ZM57.6906 8.00343C58.7666 8.77197 59.4788 9.76568 59.8359 10.99L60.3159 10.85C59.9264 9.51431 59.1453 8.42802 57.9812 7.59656L57.6906 8.00343ZM59.8373 10.9943L73.9173 56.1944L74.3946 56.0456L60.3146 10.8456L59.8373 10.9943ZM73.9059 56.12C73.9059 56.1852 73.9224 56.28 73.9992 56.3568C74.0759 56.4335 74.1707 56.45 74.2359 56.45V55.95C74.2478 55.95 74.3026 55.9531 74.3527 56.0032C74.4028 56.0533 74.4059 56.1081 74.4059 56.12H73.9059ZM74.2359 56.45C74.3011 56.45 74.396 56.4335 74.4727 56.3568C74.5495 56.28 74.5659 56.1852 74.5659 56.12H74.0659C74.0659 56.1081 74.0691 56.0533 74.1192 56.0032C74.1693 55.9531 74.2241 55.95 74.2359 55.95V56.45ZM74.5546 56.1944L88.6346 10.9943L88.1573 10.8456L74.0773 56.0456L74.5546 56.1944ZM88.6331 10.9991C89.0439 9.76668 89.7605 8.7691 90.7859 8L90.4859 7.6C89.3781 8.43089 88.6013 9.51331 88.1588 10.8409L88.6331 10.9991ZM90.7812 8.00343C91.8603 7.23267 93.0365 6.85 94.3159 6.85V6.35C92.9287 6.35 91.6516 6.76732 90.4906 7.59656L90.7812 8.00343ZM94.3159 6.85C95.3556 6.85 96.1591 7.26459 96.7517 8.10417L97.1602 7.81582C96.4728 6.84207 95.5163 6.35 94.3159 6.35V6.85ZM96.7574 8.11186C97.4002 8.95246 97.5452 9.85115 97.2 10.8374L97.6719 11.0026C98.0734 9.8555 97.8984 8.78087 97.1545 7.80813L96.7574 8.11186ZM97.1995 10.8387L80.0795 60.5987L80.5523 60.7613L97.6723 11.0013L97.1995 10.8387ZM80.0788 60.6009C79.6692 61.8297 78.9286 62.8266 77.8506 63.5966L78.1412 64.0034C79.3033 63.1734 80.1094 62.0903 80.5531 60.7591L80.0788 60.6009ZM77.8459 63.6C76.8244 64.3662 75.6508 64.75 74.3159 64.75V65.25C75.7544 65.25 77.0342 64.8338 78.1459 64L77.8459 63.6ZM74.3159 64.75H73.8359V65.25H74.3159V64.75ZM73.8359 64.75C72.5565 64.75 71.3803 64.3673 70.3012 63.5966L70.0106 64.0034C71.1716 64.8327 72.4487 65.25 73.8359 65.25V64.75ZM70.3012 63.5966C69.2233 62.8266 68.4827 61.8297 68.0731 60.6009L67.5988 60.7591C68.0425 62.0903 68.8486 63.1734 70.0106 64.0034L70.3012 63.5966Z" fill="white"/>
<path d="M109.12 85C107.893 85 106.827 84.5467 105.92 83.64C105.013 82.7333 104.56 81.6667 104.56 80.44V31.16C104.56 29.9333 105.013 28.8667 105.92 27.96C106.827 27.0533 107.893 26.6 109.12 26.6H109.2C110.427 26.6 111.493 27.0533 112.4 27.96C113.307 28.8667 113.76 29.9333 113.76 31.16V76.92C113.76 77.4 113.973 77.64 114.4 77.64H136.88C137.893 77.64 138.747 78.0133 139.44 78.76C140.187 79.4533 140.56 80.3067 140.56 81.32C140.56 82.3333 140.187 83.2133 139.44 83.96C138.747 84.6533 137.893 85 136.88 85H109.12Z" fill="#779DFF"/>
<path d="M105.92 83.64L106.097 83.4632L105.92 83.64ZM105.92 27.96L105.743 27.7832L105.743 27.7832L105.92 27.96ZM112.4 27.96L112.577 27.7832V27.7832L112.4 27.96ZM139.44 78.76L139.257 78.9301L139.263 78.9369L139.27 78.9432L139.44 78.76ZM139.44 83.96L139.617 84.1368L139.44 83.96ZM109.12 84.75C107.963 84.75 106.959 84.3254 106.097 83.4632L105.743 83.8168C106.694 84.768 107.824 85.25 109.12 85.25V84.75ZM106.097 83.4632C105.235 82.6011 104.81 81.5971 104.81 80.44H104.31C104.31 81.7362 104.792 82.8656 105.743 83.8168L106.097 83.4632ZM104.81 80.44V31.16H104.31V80.44H104.81ZM104.81 31.16C104.81 30.0029 105.235 28.9989 106.097 28.1368L105.743 27.7832C104.792 28.7344 104.31 29.8638 104.31 31.16H104.81ZM106.097 28.1368C106.959 27.2746 107.963 26.85 109.12 26.85V26.35C107.824 26.35 106.694 26.832 105.743 27.7832L106.097 28.1368ZM109.12 26.85H109.2V26.35H109.12V26.85ZM109.2 26.85C110.357 26.85 111.361 27.2746 112.223 28.1368L112.577 27.7832C111.626 26.832 110.496 26.35 109.2 26.35V26.85ZM112.223 28.1368C113.085 28.9989 113.51 30.0029 113.51 31.16H114.01C114.01 29.8638 113.528 28.7344 112.577 27.7832L112.223 28.1368ZM113.51 31.16V76.92H114.01V31.16H113.51ZM113.51 76.92C113.51 77.1918 113.57 77.4423 113.733 77.6261C113.902 77.8155 114.14 77.89 114.4 77.89V77.39C114.233 77.39 114.152 77.3445 114.107 77.2939C114.057 77.2377 114.01 77.1282 114.01 76.92H113.51ZM114.4 77.89H136.88V77.39H114.4V77.89ZM136.88 77.89C137.823 77.89 138.61 78.2341 139.257 78.9301L139.623 78.5899C138.883 77.7926 137.963 77.39 136.88 77.39V77.89ZM139.27 78.9432C139.966 79.5895 140.31 80.3766 140.31 81.32H140.81C140.81 80.2367 140.407 79.3171 139.61 78.5768L139.27 78.9432ZM140.31 81.32C140.31 82.264 139.965 83.0812 139.263 83.7832L139.617 84.1368C140.408 83.3454 140.81 82.4027 140.81 81.32H140.31ZM139.263 83.7832C138.618 84.4279 137.83 84.75 136.88 84.75V85.25C137.957 85.25 138.875 84.8787 139.617 84.1368L139.263 83.7832ZM136.88 84.75H109.12V85.25H136.88V84.75Z" fill="white"/>
<path d="M34.6876 103.16C37.366 101.498 39.5806 99.186 41.1257 96.4394C42.6707 93.6928 43.4961 90.6005 43.5251 87.4497C43.5251 77.0055 34.5562 68.5091 23.5323 68.5091C12.5084 68.5091 3.53938 77.0055 3.53938 87.4497C3.56847 90.6005 4.39388 93.6928 5.93893 96.4394C7.48397 99.186 9.69854 101.498 12.3769 103.16C9.5979 103.853 7.12487 105.443 5.34016 107.682C3.55545 109.921 2.55845 112.685 2.5033 115.547V138.104C2.51727 138.611 2.73219 139.093 3.10084 139.442C3.46948 139.791 3.96173 139.98 4.46947 139.966H42.5934C43.1012 139.98 43.5934 139.791 43.962 139.442C44.3307 139.093 44.5456 138.611 44.5596 138.104V115.547C44.5045 112.685 43.5078 109.921 41.7234 107.682C39.939 105.443 37.4663 103.854 34.6876 103.16ZM28.0652 108.966L25.6776 106.39H30.4537L28.0652 108.966ZM20.4446 106.39L25.1829 111.502L20.7461 114.637L18.6098 106.39L20.4446 106.39ZM34.9349 107.202C35.1853 107.311 35.4296 107.428 35.6678 107.551L34.9678 114.343L30.9484 111.503L34.9349 107.202ZM7.47173 87.4497C7.47173 79.0601 14.6767 72.2347 23.5323 72.2347C32.3879 72.2347 39.5928 79.0601 39.5928 87.4497C39.5928 95.8394 32.3879 102.665 23.5323 102.665C14.6767 102.665 7.47173 95.8394 7.47173 87.4497ZM6.43565 115.547C6.48753 113.314 7.33864 111.174 8.83454 109.514C10.3304 107.855 12.372 106.787 14.5887 106.503L17.6362 118.254C17.719 118.558 17.876 118.837 18.0933 119.066C18.3106 119.294 18.5812 119.465 18.881 119.563C19.1865 119.667 19.5123 119.698 19.8319 119.653C20.1516 119.608 20.456 119.488 20.7206 119.303L26.0991 115.502V136.241H16.1433V117.776C16.1054 117.281 15.8818 116.819 15.5172 116.481C15.1527 116.144 14.674 115.956 14.1771 115.956C13.6802 115.956 13.2016 116.144 12.837 116.481C12.4725 116.819 12.2489 117.281 12.2109 117.776V136.241H6.43483L6.43565 115.547ZM40.6297 136.24H30.0306V115.504L35.4074 119.304C35.6916 119.502 36.0215 119.626 36.3663 119.662C36.7111 119.699 37.0596 119.648 37.3793 119.514C37.6921 119.388 37.9651 119.18 38.1695 118.912C38.374 118.644 38.5024 118.326 38.5411 117.992L39.274 110.881C40.157 112.278 40.6262 113.895 40.6272 115.547V136.24H40.6297Z" fill="#779DFF"/>
<path d="M34.4189 122.34C34.2984 122.049 34.0899 121.804 33.8228 121.638C33.5557 121.472 33.2434 121.393 32.9294 121.413C32.6155 121.434 32.3157 121.551 32.0722 121.75C31.8286 121.949 31.6534 122.219 31.5711 122.523C31.4888 122.826 31.5036 123.148 31.6133 123.443C31.723 123.737 31.9222 123.99 32.183 124.166C32.4437 124.342 32.753 124.432 33.0675 124.423C33.3819 124.415 33.6858 124.308 33.9366 124.118C34.2026 123.917 34.3943 123.633 34.4815 123.311C34.5688 122.989 34.5468 122.648 34.4189 122.34Z" fill="#779DFF"/>
<path d="M22.3458 83.9139C22.2277 83.6282 22.0245 83.3857 21.7638 83.2193C21.5032 83.053 21.1976 82.9708 20.8886 82.9839C20.5796 82.997 20.282 83.1047 20.0364 83.2925C19.7907 83.4803 19.6088 83.7391 19.5153 84.0337C19.4218 84.3284 19.4212 84.6446 19.5136 84.9396C19.606 85.2346 19.787 85.4941 20.032 85.6828C20.277 85.8715 20.5741 85.9803 20.883 85.9945C21.192 86.0088 21.4979 85.9277 21.7592 85.7623C22.059 85.5725 22.2822 85.283 22.3895 84.9449C22.4969 84.6068 22.4814 84.2417 22.3458 83.9139Z" fill="#779DFF"/>
<path d="M32.7288 85.0684C32.8488 85.3577 33.056 85.6024 33.3216 85.7685C33.5872 85.9347 33.8981 86.014 34.2108 85.9954C34.5236 85.9769 34.8229 85.8614 35.067 85.6651C35.311 85.4687 35.4878 85.2012 35.5728 84.8998C35.6577 84.5984 35.6466 84.278 35.541 83.9832C35.4353 83.6884 35.2404 83.4338 34.9832 83.2548C34.7261 83.0758 34.4196 82.9814 34.1063 82.9846C33.7929 82.9877 33.4884 83.0884 33.235 83.2725C32.963 83.4734 32.7657 83.759 32.6741 84.0843C32.5824 84.4096 32.6017 84.7561 32.7288 85.0692C32.7674 85.1579 32.691 84.9756 32.7288 85.0684Z" fill="#779DFF"/>
<path d="M184.629 103.193C187.307 101.531 189.522 99.2189 191.067 96.4723C192.612 93.7257 193.437 90.6333 193.466 87.4826C193.466 77.0384 184.497 68.5419 173.473 68.5419C162.45 68.5419 153.481 77.0384 153.481 87.4826C153.51 90.6333 154.335 93.7256 155.88 96.4722C157.425 99.2188 159.64 101.531 162.318 103.193C159.538 103.886 157.064 105.474 155.279 107.713C153.493 109.953 152.496 112.717 152.44 115.58V138.137C152.454 138.644 152.669 139.125 153.038 139.475C153.407 139.824 153.899 140.012 154.407 139.999H192.531C193.038 140.012 193.531 139.824 193.899 139.475C194.268 139.125 194.483 138.644 194.497 138.137V115.58C194.442 112.719 193.446 109.955 191.662 107.716C189.878 105.477 187.407 103.888 184.629 103.193ZM180.483 106.422C179.697 107.553 178.649 108.477 177.428 109.115C176.207 109.753 174.85 110.086 173.473 110.086C172.095 110.086 170.738 109.753 169.517 109.115C168.297 108.477 167.248 107.553 166.462 106.422H180.483ZM157.412 87.4817C157.412 79.0921 164.617 72.2667 173.473 72.2667C182.328 72.2667 189.533 79.0921 189.533 87.4817C189.533 95.8714 182.328 102.697 173.473 102.697C164.617 102.697 157.413 95.8723 157.413 87.4826L157.412 87.4817ZM156.376 115.579C156.404 113.727 156.992 111.927 158.063 110.415C159.133 108.903 160.636 107.75 162.374 107.107C163.436 109.129 165.031 110.823 166.987 112.005C168.942 113.186 171.184 113.811 173.469 113.811C175.754 113.811 177.996 113.186 179.951 112.005C181.907 110.823 183.502 109.129 184.564 107.107C186.303 107.75 187.807 108.902 188.878 110.414C189.949 111.926 190.538 113.727 190.567 115.579V122.188H183.679V117.807C183.641 117.312 183.418 116.849 183.053 116.511C182.688 116.174 182.21 115.986 181.713 115.986C181.216 115.986 180.737 116.174 180.373 116.511C180.008 116.849 179.785 117.312 179.747 117.807V136.271H156.377V115.578L156.376 115.579ZM183.682 136.272V125.916H190.57V136.274L183.682 136.272Z" fill="#D2D2D2"/>
<path d="M172.586 86.0907C172.738 86.4572 172.974 86.783 173.275 87.0421C173.576 87.3011 173.933 87.4861 174.318 87.5823C174.703 87.6786 175.105 87.6833 175.493 87.5961C175.88 87.509 176.242 87.3324 176.548 87.0806C176.855 86.8287 177.098 86.5085 177.259 86.1457C177.42 85.7828 177.493 85.3875 177.473 84.9912C177.454 84.5949 177.341 84.2088 177.145 83.8637C176.949 83.5186 176.675 83.2242 176.345 83.004C175.892 82.7009 175.352 82.5518 174.808 82.5786C174.263 82.6054 173.741 82.8068 173.319 83.153C172.898 83.4991 172.599 83.9717 172.467 84.5007C172.335 85.0298 172.377 85.5873 172.586 86.0907C172.651 86.2426 172.522 85.9347 172.586 86.0907Z" fill="#D2D2D2"/>
<path d="M165.933 84.6151C165.866 84.2892 165.738 83.9788 165.556 83.7003C165.207 83.1735 164.673 82.7956 164.06 82.64C163.447 82.4844 162.798 82.5623 162.24 82.8586C161.681 83.1549 161.253 83.6483 161.038 84.2428C160.823 84.8374 160.837 85.4905 161.078 86.0752C161.318 86.6598 161.768 87.1341 162.339 87.4057C162.91 87.6774 163.562 87.727 164.167 87.5448C164.773 87.3627 165.289 86.9618 165.616 86.4203C165.942 85.8788 166.055 85.2353 165.933 84.6151C165.906 84.4525 165.97 84.781 165.933 84.6151Z" fill="#D2D2D2"/>
<path d="M173.404 96.0168C173.147 95.8163 172.83 95.7074 172.504 95.7074C172.177 95.7074 171.861 95.8163 171.603 96.0168C171.149 96.3714 170.588 96.564 170.011 96.564C169.434 96.564 168.874 96.3714 168.419 96.0168C168.162 95.8163 167.845 95.7074 167.519 95.7074C167.193 95.7074 166.876 95.8163 166.619 96.0168C166.503 96.1038 166.409 96.2166 166.344 96.3462C166.279 96.4759 166.246 96.6187 166.246 96.7636C166.246 96.9085 166.279 97.0513 166.344 97.181C166.409 97.3106 166.503 97.4234 166.619 97.5104C167.588 98.2649 168.782 98.6746 170.011 98.6746C171.24 98.6746 172.433 98.2649 173.403 97.5104C173.519 97.4234 173.613 97.3107 173.678 97.1811C173.742 97.0515 173.776 96.9087 173.776 96.7638C173.776 96.6189 173.743 96.476 173.678 96.3464C173.613 96.2168 173.519 96.1039 173.404 96.0168Z" fill="#D2D2D2"/>
</g>
<defs>
<clipPath id="clip0">
<rect width="197" height="140" fill="white"/>
</clipPath>
</defs>
</svg>
